<?xml version="1.0" standalone="no"?>
<svg xmlns="http://www.w3.org/2000/svg" viewBox="0 0 174.048 26.265" width="174.048" height="26.265">
    <g fill="#00ffff" color="#00ffff" transform="translate(0, 0) scale(0.5471699)">
        <svg width="53.0" height="48.0" x="0.0" y="0.0" viewBox="0 0 53 48">
            <path fill="currentColor" fill-rule="evenodd" d="M14.18 0L0 8.432v16.864l14.18 8.435L24 27.846v11.72L38.181 48l14.181-8.434V22.704l-14.181-8.433-9.818 5.883V8.432L14.18 0zM4.364 22.814V10.915l9.817-5.84L24 10.915v11.853l-9.819 5.885-9.817-5.839zm23.999 14.27V25.23l9.818-5.884 9.818 5.837v11.9L38.18 42.92l-9.818-5.837z"></path>
        </svg>
    </g>
    <line x1="41" y1="1" x2="41" y2="25.265" stroke="#ffffff" stroke-linecap="round"></line>
    <path fill="#ffffff" fill-rule="nonzero" d="M15.84 1.06Q15.86 1.25 15.86 1.66Q15.86 2.06 15.79 2.40L15.79 2.40L14.88 2.47Q14.86 3.14 14.86 4.46L14.86 4.46Q14.86 10.34 15.38 14.98L15.38 14.98L16.27 15.05Q16.32 15.43 16.32 15.71Q16.32 15.98 16.25 16.39L16.25 16.39Q15.41 16.37 14.30 16.37Q13.20 16.37 12.38 16.39L12.38 16.39Q12.31 16.03 12.31 15.76Q12.31 15.48 12.36 15.05L12.36 15.05L13.15 14.98Q13.20 13.25 13.20 11.03Q13.20 8.81 12.98 4.85L12.98 4.85Q12.74 5.35 11.78 7.30L11.78 7.30Q9.65 11.54 8.86 13.56L8.86 13.56Q8.38 13.75 7.84 13.75Q7.30 13.75 7.10 13.73L7.10 13.73Q6.26 11.71 4.72 8.84Q3.17 5.98 2.88 5.45L2.88 5.45Q2.69 8.86 2.69 11.22Q2.69 13.58 2.74 14.98L2.74 14.98L3.62 15.05Q3.67 15.43 3.67 15.71Q3.67 15.98 3.60 16.39L3.60 16.39Q2.83 16.37 1.82 16.37Q0.82 16.37 0.07 16.39L0.07 16.39Q0 16.03 0 15.76Q0 15.48 0.05 15.05L0.05 15.05L0.89 14.98Q1.39 10.61 1.39 4.63L1.39 4.63Q1.39 3.48 1.32 2.47L1.32 2.47L0.43 2.40Q0.36 2.06 0.36 1.66Q0.36 1.25 0.38 1.06L0.38 1.06Q2.35 1.01 3.36 0.94L3.36 0.94Q3.77 3.14 8.21 11.33L8.21 11.33Q11.88 4.15 12.50 0.94L12.50 0.94Q13.39 1.01 15.84 1.06L15.84 1.06ZM22.87 11.04L22.87 11.04Q21.70 11.04 20.69 10.92L20.69 10.92Q20.74 15.00 23.40 15.00L23.40 15.00Q24.74 15.00 26.38 13.51L26.38 13.51Q27.07 14.23 27.26 15.41L27.26 15.41Q25.30 16.73 23.09 16.73Q20.88 16.73 19.80 15.20Q18.72 13.68 18.72 10.73Q18.72 7.78 19.93 6.34Q21.14 4.90 23.38 4.90L23.38 4.90Q25.03 4.90 26.11 5.90Q27.19 6.91 27.20 8.38Q27.22 9.84 26.95 10.46L26.95 10.46Q25.15 11.04 22.87 11.04ZM23.21 6.24L23.21 6.24Q20.98 6.24 20.71 9.53L20.71 9.53Q21.79 9.65 23.09 9.65Q24.38 9.65 25.10 9.41L25.10 9.41Q25.20 8.81 25.20 8.52L25.20 8.52Q25.20 7.46 24.66 6.85Q24.12 6.24 23.21 6.24ZM30.70 10.80L30.70 10.80L30.70 7.51Q30.70 3.19 30.58 1.63L30.58 1.63L29.62 1.56Q29.54 1.25 29.54 0.83Q29.54 0.41 29.57 0.22L29.57 0.22Q31.75 0.10 32.69 0L32.69 0L32.78 0.12Q32.45 2.98 32.45 6.26L32.45 6.26L32.45 10.22Q32.45 13.18 32.66 14.98L32.66 14.98L33.55 15.05Q33.60 15.43 33.60 15.71Q33.60 15.98 33.53 16.39L33.53 16.39Q32.69 16.37 31.58 16.37Q30.48 16.37 29.66 16.39L29.66 16.39Q29.59 16.03 29.59 15.76Q29.59 15.48 29.64 15.05L29.64 15.05L30.48 14.98Q30.70 12.72 30.70 10.80ZM35.59 10.68Q35.59 4.90 40.10 4.90Q44.62 4.90 44.62 10.68L44.62 10.68Q44.62 13.34 43.78 14.90L43.78 14.90Q42.82 16.73 40.10 16.73Q37.39 16.73 36.43 14.90L36.43 14.90Q35.59 13.34 35.59 10.68L35.59 10.68ZM37.56 10.62Q37.56 15.00 40.10 15.00Q42.65 15.00 42.65 10.62Q42.65 6.24 40.10 6.24Q37.56 6.24 37.56 10.62ZM56.33 7.97L56.33 7.97L56.30 10.30Q56.30 12.82 56.59 14.98L56.59 14.98L57.43 15.05Q57.48 15.58 57.48 15.78Q57.48 15.98 57.41 16.39L57.41 16.39Q56.74 16.37 55.39 16.37Q54.05 16.37 53.47 16.39L53.47 16.39Q53.40 16.03 53.40 15.71Q53.40 15.38 53.45 15.05L53.45 15.05L54.29 14.98Q54.48 12.17 54.48 10.16Q54.48 8.16 54.08 7.30Q53.69 6.43 52.73 6.43L52.73 6.43Q51.43 6.43 49.87 7.99L49.87 7.99Q49.85 8.62 49.85 10.91Q49.85 13.20 50.06 14.98L50.06 14.98L50.95 15.05Q51 15.58 51 15.78Q51 15.98 50.93 16.39L50.93 16.39Q50.26 16.37 48.96 16.37Q47.66 16.37 47.06 16.39L47.06 16.39Q46.99 16.03 46.99 15.71Q46.99 15.38 47.04 15.05L47.04 15.05L47.88 14.98Q48.10 12.58 48.10 10.57Q48.10 8.57 47.90 6.60L47.90 6.60L47.02 6.53Q46.94 6.12 46.94 5.72Q46.94 5.33 46.97 5.18L46.97 5.18Q48.19 5.16 49.94 4.97L49.94 4.97L50.06 5.09Q50.02 5.38 49.92 6.53L49.92 6.53Q50.66 5.78 51.65 5.34Q52.63 4.90 53.50 4.90L53.50 4.90Q56.33 4.90 56.33 7.97ZM60.29 12.48L60.29 12.48Q60.29 12.48 60.34 7.13L60.34 7.13Q60.34 6.77 60.31 6.58L60.31 6.58Q59.30 6.58 58.87 6.60L58.87 6.60Q58.73 6.22 58.73 5.84Q58.73 5.47 58.78 5.28L58.78 5.28L60.24 5.28L60.12 3.50Q60.72 3.31 61.38 3.31Q62.04 3.31 62.47 3.41L62.47 3.41L62.26 5.26Q63.58 5.23 64.92 5.11L64.92 5.11Q65.06 5.42 65.06 5.80Q65.06 6.17 64.97 6.70L64.97 6.70Q64.08 6.65 62.16 6.60L62.16 6.60Q62.11 7.08 62.11 8.02L62.11 8.02L62.11 12.89Q62.11 13.51 62.17 13.91Q62.23 14.30 62.48 14.63Q62.74 14.95 63.22 14.95L63.22 14.95Q64.27 14.95 65.23 14.21L65.23 14.21Q65.74 14.93 65.74 16.15L65.74 16.15Q64.42 16.73 63.44 16.73Q62.47 16.73 61.90 16.48Q61.32 16.22 61.01 15.88Q60.70 15.53 60.53 14.90L60.53 14.90Q60.29 14.02 60.29 12.48ZM76.49 7.97L76.49 7.97L76.46 10.30Q76.46 12.84 76.75 14.98L76.75 14.98L77.59 15.05Q77.64 15.43 77.64 15.71Q77.64 15.98 77.57 16.39L77.57 16.39Q76.73 16.37 75.59 16.37Q74.45 16.37 73.63 16.39L73.63 16.39Q73.56 16.03 73.56 15.76Q73.56 15.48 73.61 15.05L73.61 15.05L74.45 14.98Q74.64 12.38 74.64 10.37Q74.64 8.35 74.29 7.39Q73.94 6.43 72.89 6.43L72.89 6.43Q71.54 6.43 70.01 7.97L70.01 7.97L70.01 10.22Q70.01 13.18 70.22 14.98L70.22 14.98L71.11 15.05Q71.16 15.43 71.16 15.71Q71.16 15.98 71.09 16.39L71.09 16.39Q70.25 16.37 69.14 16.37Q68.04 16.37 67.22 16.39L67.22 16.39Q67.15 16.03 67.15 15.76Q67.15 15.48 67.20 15.05L67.20 15.05L68.04 14.98Q68.26 12.72 68.26 10.80L68.26 10.80L68.26 7.51Q68.26 3.19 68.14 1.63L68.14 1.63L67.18 1.56Q67.10 1.25 67.10 0.83Q67.10 0.41 67.13 0.22L67.13 0.22Q69.31 0.10 70.25 0L70.25 0L70.34 0.12Q70.01 2.98 70.01 6.55L70.01 6.55Q70.73 5.83 71.74 5.36Q72.74 4.90 73.66 4.90L73.66 4.90Q76.49 4.90 76.49 7.97ZM83.88 11.04L83.88 11.04Q82.70 11.04 81.70 10.92L81.70 10.92Q81.74 15.00 84.41 15.00L84.41 15.00Q85.75 15.00 87.38 13.51L87.38 13.51Q88.08 14.23 88.27 15.41L88.27 15.41Q86.30 16.73 84.10 16.73Q81.89 16.73 80.81 15.20Q79.73 13.68 79.73 10.73Q79.73 7.78 80.94 6.34Q82.15 4.90 84.38 4.90L84.38 4.90Q86.04 4.90 87.12 5.90Q88.20 6.91 88.21 8.38Q88.22 9.84 87.96 10.46L87.96 10.46Q86.16 11.04 83.88 11.04ZM84.22 6.24L84.22 6.24Q81.98 6.24 81.72 9.53L81.72 9.53Q82.80 9.65 84.10 9.65Q85.39 9.65 86.11 9.41L86.11 9.41Q86.21 8.81 86.21 8.52L86.21 8.52Q86.21 7.46 85.67 6.85Q85.13 6.24 84.22 6.24ZM97.56 5.47L97.56 5.47L97.58 3.96Q97.58 2.52 97.49 1.63L97.49 1.63L96.53 1.56Q96.46 1.27 96.46 0.82Q96.46 0.36 96.48 0.22L96.48 0.22Q98.62 0.12 99.60 0L99.60 0L99.70 0.12Q99.34 3.26 99.34 8.22Q99.34 13.18 99.55 14.76L99.55 14.76L100.44 14.81Q100.49 15.34 100.49 15.59Q100.49 15.84 100.42 16.20L100.42 16.20Q99.48 16.25 97.80 16.44L97.80 16.44Q97.61 16.06 97.51 15.22L97.51 15.22Q95.86 16.73 94.16 16.73Q92.47 16.73 91.57 15.19Q90.67 13.66 90.67 10.84Q90.67 8.02 91.81 6.46Q92.95 4.90 95.09 4.90L95.09 4.90Q96.29 4.90 97.56 5.47ZM95.11 6.31L95.11 6.31Q92.71 6.31 92.71 11.09L92.71 11.09Q92.71 12.89 93.25 13.88Q93.79 14.88 94.75 14.88L94.75 14.88Q95.40 14.88 96.18 14.47Q96.96 14.06 97.54 13.44L97.54 13.44Q97.58 10.46 97.58 7.01L97.58 7.01Q96.05 6.31 95.11 6.31ZM106.68 11.04L106.68 11.04Q105.50 11.04 104.50 10.92L104.50 10.92Q104.54 15.00 107.21 15.00L107.21 15.00Q108.55 15.00 110.18 13.51L110.18 13.51Q110.88 14.23 111.07 15.41L111.07 15.41Q109.10 16.73 106.90 16.73Q104.69 16.73 103.61 15.20Q102.53 13.68 102.53 10.73Q102.53 7.78 103.74 6.34Q104.95 4.90 107.18 4.90L107.18 4.90Q108.84 4.90 109.92 5.90Q111 6.91 111.01 8.38Q111.02 9.84 110.76 10.46L110.76 10.46Q108.96 11.04 106.68 11.04ZM107.02 6.24L107.02 6.24Q104.78 6.24 104.52 9.53L104.52 9.53Q105.60 9.65 106.90 9.65Q108.19 9.65 108.91 9.41L108.91 9.41Q109.01 8.81 109.01 8.52L109.01 8.52Q109.01 7.46 108.47 6.85Q107.93 6.24 107.02 6.24ZM119.98 6.58L118.97 6.50Q118.92 6.26 118.92 5.87Q118.92 5.47 118.99 5.16L118.99 5.16Q119.71 5.18 121.00 5.18Q122.28 5.18 122.98 5.16L122.98 5.16Q123.05 5.47 123.05 5.83Q123.05 6.19 123.00 6.50L123.00 6.50L122.21 6.58Q119.18 13.61 118.49 16.37L118.49 16.37Q117.86 16.54 117.37 16.54Q116.88 16.54 116.71 16.51L116.71 16.51Q115.34 11.66 112.99 6.58L112.99 6.58L112.20 6.50Q112.15 6.22 112.15 5.84Q112.15 5.47 112.22 5.16L112.22 5.16Q112.92 5.18 114.30 5.18Q115.68 5.18 116.40 5.16L116.40 5.16Q116.47 5.47 116.47 5.84Q116.47 6.22 116.42 6.50L116.42 6.50L115.44 6.58Q115.92 9.67 117.65 13.70L117.65 13.70L117.74 13.70Q118.37 12.50 119.02 10.43Q119.66 8.35 119.98 6.58L119.98 6.58Z" transform="translate(51, 4.949)"></path>
</svg>